<svg width="133" height="141" viewBox="0 0 133 141" fill="none" xmlns="http://www.w3.org/2000/svg">
<path fill-rule="evenodd" clip-rule="evenodd" d="M76.2596 39.0007C76.8876 38.9883 77.6142 39.0745 78.0329 39.1853C78.4269 39.296 79.1288 39.5914 79.6091 39.8375C80.1509 40.1206 80.7543 40.5759 81.2592 41.0805C81.8257 41.6589 82.1828 42.1635 83.0571 43.9972L83.9807 44.0588C84.6087 44.0957 85.1259 44.2065 85.5815 44.4157C85.951 44.588 86.4682 44.8833 86.7268 45.0802C86.9854 45.2895 87.4041 45.7571 87.6503 46.1263C87.9089 46.4955 88.2291 47.1724 88.5985 48.4646H90.5073C91.8618 48.4646 92.5761 48.5139 92.9701 48.6369C93.278 48.7477 93.8198 49.0923 94.1893 49.4123C94.5464 49.7322 94.9897 50.286 95.1744 50.6183C95.433 51.1229 95.4946 51.406 95.4946 52.2182C95.4946 53.0305 95.433 53.3135 95.1621 53.8797C94.9897 54.2489 94.5956 54.7781 94.3001 55.0365C94.0169 55.3072 93.5489 55.6272 93.278 55.738C93.0071 55.8611 92.5022 55.9964 92.1697 56.0334C91.6525 56.1072 91.4924 56.0703 91.2092 55.8611C90.9629 55.6641 90.8767 55.4918 90.8767 55.1719C90.8767 54.9011 90.9752 54.6427 91.123 54.495C91.2584 54.3596 91.517 54.2489 91.7018 54.2489C91.8988 54.2489 92.2682 54.1504 92.5391 54.0273C92.81 53.9043 93.1672 53.6089 93.3396 53.3751C93.5859 53.0428 93.6474 52.809 93.6474 52.2551C93.6474 51.7383 93.5858 51.4675 93.3888 51.2091C93.2534 51.0245 92.9455 50.7414 92.7115 50.5814C92.3052 50.3107 92.1943 50.2984 89.7684 50.3107C87.3302 50.323 87.2317 50.3107 86.9977 50.0522C86.8253 49.8553 86.7268 49.5476 86.6775 48.9077C86.6406 48.4031 86.4928 47.8247 86.3573 47.5416C86.2219 47.2709 85.8894 46.8524 85.6308 46.6063C85.3599 46.3725 84.9289 46.1017 84.658 46.0156C84.387 45.9171 83.8329 45.8679 83.4142 45.8925C82.8478 45.9294 82.5276 46.0279 82.0596 46.3232C81.7148 46.5325 81.3085 46.9263 81.1114 47.2463C80.8652 47.6401 80.742 48.0585 80.6435 48.7723C80.5696 49.3876 80.4465 49.8307 80.311 49.9784C80.1879 50.1014 79.8184 50.2245 79.4244 50.2614C79.0549 50.3107 78.5254 50.4583 78.2545 50.6183C77.959 50.7783 77.6757 51.0737 77.5403 51.3444C77.4295 51.5906 77.3309 52.0213 77.3309 52.3044C77.3309 52.649 77.4171 52.9812 77.6019 53.252C77.7619 53.4858 78.0452 53.7935 78.2299 53.9289C78.5624 54.175 78.7594 54.1873 82.6138 54.2489C85.9633 54.2981 86.6898 54.3473 86.8622 54.495C86.9854 54.6058 87.0716 54.8519 87.0593 55.135C87.0593 55.3934 86.9731 55.6888 86.8745 55.7872C86.776 55.8857 86.5667 55.9964 86.4066 56.0334C86.2588 56.0826 84.387 56.0949 82.2567 56.0703C78.4146 56.0334 78.3653 56.0334 77.7127 55.7257C77.294 55.5288 76.8261 55.1719 76.432 54.7411C76.0133 54.2612 75.767 53.855 75.6316 53.3628C75.4222 52.6736 75.4222 52.6736 74.8065 52.5382C74.4617 52.4644 73.7721 52.2059 73.2672 51.9598C72.6146 51.6521 72.0973 51.2706 71.5186 50.6922C70.9398 50.1138 70.5704 49.6092 70.2625 48.9569C70.0162 48.4523 69.733 47.6155 69.6222 47.1109C69.4867 46.4709 69.4498 45.9294 69.5113 45.3264C69.5606 44.8464 69.7084 44.1326 69.8438 43.7265C69.9793 43.3204 70.2256 42.7419 70.4103 42.4343C70.5827 42.1266 71.0383 41.5605 71.4077 41.1667C71.7895 40.7728 72.3683 40.2683 72.7131 40.059C73.0456 39.8375 73.7475 39.5175 74.2524 39.3329C74.9789 39.0745 75.4099 39.0007 76.2473 39.0007H76.2596ZM73.9691 41.4866C73.5751 41.7082 73.0086 42.1389 72.7131 42.4589C72.4175 42.7912 72.0358 43.345 71.8634 43.6896C71.691 44.0465 71.4939 44.6741 71.4201 45.0802C71.3215 45.6217 71.3215 46.0279 71.4201 46.6186C71.4939 47.0616 71.691 47.7139 71.8634 48.0585C72.0358 48.4154 72.4668 49.0061 72.8116 49.363C73.1687 49.7199 73.7721 50.163 74.1415 50.3476C74.511 50.5322 75.0158 50.7168 75.2498 50.7537C75.6562 50.8275 75.6931 50.8029 76.0749 50.1999C76.2965 49.8553 76.7152 49.4 76.9985 49.203C77.294 48.9938 77.8112 48.7231 78.1683 48.6123C78.7471 48.4154 78.8087 48.3662 78.8702 47.9724C78.9072 47.7385 79.0426 47.2955 79.1658 46.9878C79.3012 46.6801 79.5845 46.2002 79.7938 45.9048C80.0031 45.6217 80.4218 45.2033 80.7174 44.9818L81.2592 44.588C80.9514 43.7265 80.6681 43.2219 80.4218 42.9019C80.1879 42.5943 79.7445 42.1389 79.4367 41.8928C79.1288 41.6466 78.5747 41.339 78.2053 41.1913C77.8112 41.0436 77.1462 40.9205 76.6044 40.8836C76.0995 40.859 75.4592 40.8959 75.1882 40.9698C74.9173 41.0313 74.3755 41.2651 73.9691 41.4866ZM52.2836 48.0954C52.5053 48.0831 52.7515 48.1939 52.8993 48.3539C53.0717 48.5385 53.1579 48.8461 53.2687 50.2491L53.6382 49.5722C53.9583 48.9815 54.0569 48.8954 54.4017 48.8585C54.6233 48.8461 54.9189 48.8831 55.0543 48.9569C55.1898 49.0184 55.3499 49.2153 55.4238 49.3876C55.5223 49.6338 55.4853 49.843 54.9681 51.1106L55.7686 51.849C56.3473 52.3905 56.6798 52.8336 57.4556 54.4212L57.5172 60.513C57.5788 66.5188 57.5788 66.6173 57.825 66.6173C58.059 66.6173 58.0713 66.5065 58.1452 63.6636C58.1822 61.8176 58.2684 60.55 58.3669 60.2792C58.4531 60.0454 58.7363 59.5408 59.5121 58.4947L59.1919 57.7563C59.0195 57.3502 58.8718 56.8702 58.8718 56.6733C58.8718 56.4887 58.958 56.2549 59.0565 56.1564C59.155 56.058 59.3643 55.9349 59.5121 55.898C59.6722 55.8611 59.9185 55.8611 60.0663 55.898C60.251 55.9472 60.4726 56.218 61.0145 57.264L61.1007 56.4026C61.1622 55.6888 61.2361 55.5042 61.4701 55.3196C61.6302 55.1965 61.9134 55.098 62.0981 55.1103C62.2951 55.1103 62.5537 55.2211 62.6892 55.3565C62.8862 55.5534 62.9355 55.7626 62.9355 56.4026C62.9355 56.8579 62.9847 57.2025 63.0586 57.2025C63.1202 57.2025 63.2926 56.9564 63.4281 56.6487C63.5635 56.341 63.7852 56.0457 63.9206 55.9718C64.0561 55.898 64.2654 55.8487 64.3763 55.8487C64.4994 55.8364 64.7457 55.9472 64.9304 56.0949C65.1644 56.2549 65.2752 56.4518 65.2752 56.6733C65.2752 56.8702 65.1151 57.3748 64.561 58.6178L64.992 59.1101C65.2383 59.4054 65.5092 59.9223 65.657 60.4023C65.8786 61.1284 65.8909 61.5591 65.8909 65.0789C65.8909 68.0695 65.8417 69.1525 65.6939 69.817C65.5954 70.2847 65.3614 70.9493 65.1767 71.2939C64.992 71.6261 64.5117 72.2415 64.1054 72.6476C63.699 73.0537 63.0833 73.5214 62.7508 73.6814C62.406 73.8537 61.8518 74.0506 61.5193 74.1491C61.1499 74.2352 60.214 74.309 57.5172 74.309V86.6159H63.9822C68.0459 86.6159 70.5334 86.6651 70.6935 86.739C70.829 86.8128 71.0014 87.0097 71.0629 87.1943C71.1615 87.4282 71.1615 87.6374 71.0753 87.8466C71.0014 88.0189 70.8043 88.2281 70.6319 88.3019C70.3857 88.425 66.6052 88.4619 35.5977 88.4619L35.2652 88.1173C35.0066 87.8466 34.9573 87.7112 35.0312 87.4158C35.0805 87.2189 35.2159 86.9482 35.3268 86.8251C35.5238 86.6282 35.9302 86.6036 46.9269 86.6159V80.9547H45.2891C44.2054 80.9547 43.4173 80.8891 42.9247 80.7578C42.5183 80.6594 41.9026 80.4256 41.5701 80.2409C41.2253 80.0563 40.6589 79.6133 40.3018 79.2564C39.8954 78.8503 39.489 78.2718 38.7378 76.7089L38.7009 71.9707C38.6763 68.0448 38.7009 67.1341 38.8487 66.6788C38.9595 66.3711 39.2304 65.8665 39.9077 64.9558L39.5875 64.242C39.4151 63.8605 39.2674 63.3682 39.2674 63.1713C39.2674 62.9252 39.3536 62.7283 39.5506 62.5806C39.7107 62.4575 40.0062 62.3591 40.2156 62.3591C40.4126 62.3591 40.6712 62.4575 40.7943 62.5806C40.9052 62.7037 41.0899 63.0236 41.4347 63.7867L41.4962 62.9744C41.5455 62.3837 41.644 62.076 41.8164 61.8914C41.9765 61.7191 42.2105 61.6207 42.4568 61.633C42.6907 61.633 42.9617 61.7314 43.1094 61.8791C43.3065 62.076 43.3557 62.2975 43.3557 62.9498C43.368 63.7251 43.3803 63.7621 43.5527 63.5405C43.6513 63.4052 43.8606 63.0975 44.0084 62.8637C44.23 62.5314 44.3778 62.4206 44.7103 62.396C45.0305 62.3714 45.2152 62.4452 45.4245 62.6421C45.5723 62.8021 45.6954 63.0606 45.6954 63.2329C45.6954 63.4052 45.56 63.8359 45.3876 64.1805C45.2152 64.5374 45.0797 64.882 45.0797 64.9558C45.0797 65.0297 45.2398 65.2881 45.4491 65.5342C45.6462 65.7927 45.9048 66.2234 46.0279 66.4942C46.2126 66.9126 46.2619 67.4664 46.3111 70.0632C46.3727 72.9922 46.385 73.1399 46.6067 73.1399C46.7709 73.1399 46.8858 73.0168 46.9515 72.7707C47.0131 72.5738 47.1485 72.3399 47.2717 72.2538C47.3825 72.1676 47.6288 72.0938 47.8135 72.0938C48.0228 72.0938 48.2814 72.2169 48.4662 72.4015C48.6386 72.5738 48.774 72.8568 48.774 73.0414C48.774 73.2383 48.6509 73.6322 48.5031 73.9398C48.2938 74.346 48.0721 74.5675 47.6657 74.7767C47.2101 75.0105 46.9884 75.0475 46.4343 74.9982C46.0402 74.949 45.5723 74.8013 45.3383 74.6413C45.1043 74.4936 44.8088 74.1491 44.6857 73.8783C44.5009 73.4476 44.464 73.0045 44.464 70.457C44.464 67.9341 44.4394 67.4787 44.2423 67.0972C44.1315 66.8388 43.8606 66.5311 43.6636 66.3834C43.4419 66.2357 43.0232 66.1127 42.6169 66.0758C42.0873 66.0388 41.8287 66.0881 41.447 66.2973C41.1761 66.445 40.8559 66.7157 40.7328 66.9126C40.5357 67.2449 40.5111 67.651 40.5234 71.6508C40.5234 75.6628 40.548 76.0812 40.7574 76.672C40.8928 77.0535 41.2253 77.5581 41.5332 77.878C41.8287 78.1857 42.3459 78.5672 42.6784 78.7395C43.2572 79.0349 43.4419 79.0472 45.7693 79.1087C48.0352 79.1703 48.2814 79.1949 48.5154 79.4164C48.774 79.6625 48.7863 79.7487 48.774 86.4928H55.67V73.0784L55.9779 72.7707C56.2734 72.463 56.2858 72.463 58.5639 72.463C60.5588 72.463 60.9283 72.4261 61.4824 72.2169C61.8395 72.0815 62.3198 71.8231 62.5291 71.6631C62.7508 71.4908 63.0956 71.1093 63.3049 70.8016C63.502 70.4939 63.7606 69.9278 63.8591 69.534C64.0192 68.9556 64.0438 68.1064 64.0192 64.8081C63.9822 60.9438 63.9699 60.7715 63.7236 60.4392C63.5758 60.2546 63.2803 59.9839 63.0463 59.8485C62.8 59.7131 62.406 59.6146 62.0735 59.6146C61.7656 59.6146 61.2977 59.7254 61.0268 59.8608C60.682 60.0331 60.448 60.2792 60.251 60.6607C59.9924 61.1776 59.9801 61.3376 59.9801 64.0943C59.9801 66.8634 59.9677 67.0111 59.6968 67.4664C59.5367 67.7495 59.2289 68.0572 58.9333 68.2048C58.6132 68.3648 58.2191 68.451 57.825 68.451C57.4802 68.4387 57.0369 68.3525 56.8399 68.2541C56.6306 68.1433 56.372 67.9587 56.2611 67.8356C56.138 67.7003 55.9656 67.3803 55.8671 67.1095C55.707 66.7034 55.6824 65.5835 55.67 60.7715C55.67 55.1596 55.6577 54.9011 55.4114 54.3719C55.276 54.0643 55.0174 53.6581 54.8327 53.4735C54.6479 53.2766 54.2169 52.9689 53.8845 52.7966C53.3549 52.5136 53.121 52.4644 52.222 52.4767C51.3477 52.4767 51.0768 52.5259 50.5596 52.7966C50.2148 52.9689 49.7592 53.3258 49.5375 53.5843C49.3282 53.8427 49.0572 54.3104 48.9587 54.6181C48.7986 55.0857 48.774 56.2303 48.774 68.6479L48.4662 68.9556C48.3061 69.1279 48.0475 69.2632 47.8874 69.2632C47.7273 69.2755 47.4564 69.1648 46.9269 68.771V61.9653C46.9269 56.3164 46.9515 55.0488 47.1116 54.4581C47.2101 54.0766 47.4071 53.5351 47.5426 53.2643C47.678 52.9936 48.0844 52.4767 48.4292 52.1075C48.7863 51.7506 49.1927 51.3937 49.3282 51.3198C49.5744 51.1968 49.5744 51.1968 49.2912 50.5445C49.1434 50.1753 49.0203 49.7692 49.0203 49.6338C49.0203 49.4984 49.1434 49.2646 49.2912 49.1046C49.4513 48.9446 49.7099 48.8338 49.9316 48.8338C50.1409 48.8215 50.3995 48.92 50.5103 49.0431C50.6212 49.1661 50.8059 49.4492 50.9167 49.6584C51.0275 49.8799 51.163 50.0645 51.2369 50.0645C51.3108 50.0645 51.3477 49.7322 51.3477 49.2769C51.3231 48.5631 51.36 48.4523 51.6186 48.28C51.7787 48.1816 52.0743 48.0954 52.2836 48.0954V48.0954ZM82.6261 81.324C82.7985 81.324 83.0571 81.3978 83.1926 81.4962C83.4019 81.6439 83.4512 81.8655 83.5127 83.0715C83.562 84.2038 83.6359 84.573 83.8822 85.0775C84.0546 85.4468 84.3747 85.816 84.6703 86.0252C84.9412 86.2221 85.1998 86.3698 85.249 86.3698C85.3106 86.3698 85.3476 85.3483 85.3476 84.093C85.3476 81.9762 85.3599 81.8039 85.5939 81.5701C85.7293 81.4347 86.0002 81.324 86.2096 81.324C86.4435 81.324 86.6898 81.4347 86.8869 81.6316C87.1947 81.9393 87.1947 81.9516 87.1947 86.3698L87.5272 86.1975C87.7242 86.1113 88.0567 85.8283 88.2661 85.5821C88.4877 85.336 88.7217 84.9299 88.7956 84.6714C88.8571 84.4253 88.9187 83.6992 88.9187 83.0715C88.9187 82.0378 88.9434 81.9147 89.2266 81.6316C89.3867 81.4593 89.6453 81.324 89.8054 81.324C89.9654 81.3116 90.2487 81.447 90.8028 81.8778L90.7536 83.4161C90.7043 84.7699 90.655 85.0406 90.3595 85.6929C90.1748 86.099 90.027 86.4682 90.027 86.5174C90.027 86.579 91.7141 86.6159 97.5388 86.6159L97.7974 86.9482C97.9821 87.1943 98.0313 87.3912 97.9821 87.662C97.9451 87.8589 97.785 88.1296 97.6249 88.2527C97.3663 88.4619 96.7629 88.4742 86.7637 88.4742C76.3089 88.4742 76.1734 88.4619 75.8286 88.2158C75.5823 88.0312 75.4961 87.8712 75.4961 87.5389C75.4961 87.2682 75.5946 87.0097 75.7424 86.862C75.9764 86.6282 76.1488 86.6159 79.252 86.6159C81.0499 86.6159 82.5153 86.6036 82.5153 86.579C82.5153 86.5667 82.3429 86.1729 82.1212 85.6929C81.7518 84.8683 81.7272 84.7576 81.7148 83.3177C81.7148 81.8655 81.7272 81.7916 82.0104 81.5578C82.1705 81.4347 82.4414 81.324 82.6261 81.324V81.324ZM73.8583 94.8615C73.9445 94.8615 74.1538 94.9353 74.3262 95.0092C74.4986 95.0953 74.6834 95.2922 74.7572 95.4399C74.8188 95.5999 74.8804 96.166 74.8804 96.7075C74.8804 97.249 74.8188 97.9874 74.7449 98.332C74.671 98.6889 74.4863 99.2058 74.3509 99.4766C74.2154 99.7473 73.9568 100.153 73.7844 100.375C73.612 100.596 73.181 100.966 72.8485 101.187C72.5037 101.409 71.9865 101.68 71.6787 101.79C71.3708 101.901 70.7674 101.999 70.3241 101.999C69.8069 101.999 69.2897 101.913 68.8464 101.741C68.4769 101.593 67.9351 101.323 67.6396 101.126C67.3563 100.929 66.9253 100.51 66.6914 100.178C66.4574 99.8581 66.1495 99.2427 66.0141 98.7997C65.8294 98.2213 65.7678 97.6675 65.7678 96.7691C65.7678 95.883 65.817 95.4645 65.9525 95.2553C66.088 95.0584 66.2604 94.9846 66.5928 94.9846C66.8514 94.9846 67.1716 95.0584 67.3071 95.1569C67.5164 95.3169 67.5657 95.5138 67.6149 96.7937C67.6765 98.0367 67.7258 98.3197 67.9844 98.7751C68.1568 99.0704 68.4893 99.4397 68.7232 99.5996C68.9572 99.7719 69.1912 99.9073 69.2404 99.9073C69.302 99.9073 69.3389 98.9966 69.3389 97.8767C69.3389 96.7198 69.4005 95.6984 69.4744 95.5015C69.5483 95.3169 69.6714 95.1322 69.7453 95.083C69.8315 95.0338 70.0901 94.9846 70.3241 94.9846C70.5581 94.9846 70.8536 95.083 70.9767 95.2061C71.1738 95.3907 71.1984 95.6614 71.1861 97.6552C71.1861 99.7227 71.1984 99.9073 71.3954 99.9073C71.5186 99.9073 71.8634 99.6366 72.1712 99.3166C72.5653 98.9105 72.787 98.5659 72.8855 98.1474C72.9717 97.8275 73.0332 97.0767 73.0209 96.4737C73.0086 95.4153 73.0209 95.3661 73.3534 95.1199C73.5381 94.9723 73.7598 94.8615 73.8583 94.8615V94.8615ZM40.0432 93.0155H44.7103C47.284 93.0155 49.4882 93.0647 49.5991 93.1262C49.7222 93.1755 49.87 93.3847 49.9192 93.5816C49.9808 93.8154 49.9562 94.0616 49.8577 94.2831C49.751 94.5128 49.5539 94.6687 49.2666 94.7507C49.008 94.8246 47.1239 94.8615 40.1294 94.8L39.8954 94.4923C39.7599 94.32 39.6491 94.0492 39.6491 93.877C39.6368 93.7047 39.723 93.4339 39.8461 93.2862L40.0432 93.0155ZM56.8276 93.0155C58.527 93.0278 58.8348 93.0524 59.0195 93.237C59.1427 93.3478 59.2412 93.6185 59.2412 93.8154C59.2412 94.0246 59.1427 94.32 59.0072 94.4923C58.7732 94.8 58.7486 94.8 56.8522 94.8C55.1159 94.8 54.9312 94.7754 54.6849 94.5538C54.5248 94.4061 54.414 94.1477 54.4017 93.8893C54.3893 93.6308 54.4755 93.3847 54.611 93.2493C54.808 93.0401 55.0666 93.0155 56.8276 93.0155V93.0155ZM87.0839 97.1998C89.7068 97.1998 90.9752 97.249 91.1599 97.3475C91.3077 97.4213 91.4801 97.5444 91.5294 97.6182C91.5786 97.6921 91.6156 97.9382 91.6156 98.1597C91.6156 98.3936 91.517 98.652 91.3816 98.7997C91.1353 99.0335 90.9629 99.0458 83.131 99.0458L82.8724 98.7135C82.6877 98.4674 82.6384 98.2705 82.6877 97.9998C82.7246 97.8028 82.8724 97.5321 83.0202 97.4213C83.2541 97.2244 83.6359 97.1998 87.0839 97.1998V97.1998Z" fill="#B2B8BD"/>
<rect x="1" y="0.999481" width="131" height="139" rx="39" stroke="#B7BFC8" stroke-width="2"/>
</svg>
